<?xml version="1.0" encoding="UTF-8"?>
<svg width="752pt" height="752pt" version="1.1" viewBox="0 0 752 752" xmlns="http://www.w3.org/2000/svg">
 <path d="m287.2 565.43c-4.793 0.007812-9.1211-2.875-10.957-7.3047-1.8359-4.4297-0.82031-9.5312 2.5781-12.918l169.21-169.21-169.21-169.21c-2.4336-2.1602-3.8711-5.2305-3.9688-8.4844-0.10156-3.25 1.1445-6.4023 3.4375-8.7109 2.2969-2.3086 5.4375-3.5703 8.6914-3.4883s6.332 1.5 8.5078 3.9219l177.59 177.59v-0.003906c2.2266 2.2227 3.4766 5.2383 3.4766 8.3828 0 3.1484-1.25 6.1641-3.4766 8.3828l-177.59 177.59c-2.1992 2.1992-5.1758 3.4414-8.2891 3.457z"/>
</svg>
