<?xml version="1.0" encoding="UTF-8"?>
<svg width="752pt" height="752pt" version="1.1" viewBox="0 0 752 752" xmlns="http://www.w3.org/2000/svg">
 <path d="m290.28 376 191.45-197.04c3.6484-3.75 3.5547-9.7461-0.19531-13.395-3.7539-3.6484-9.7461-3.5625-13.395 0.19531l-197.86 203.64c-0.19531 0.20312-0.33984 0.42969-0.51172 0.64844-0.20312 0.24609-0.42188 0.48437-0.59375 0.75-0.17969 0.26953-0.3125 0.55859-0.46094 0.84375-0.13672 0.26562-0.29297 0.51953-0.40625 0.79687-0.125 0.29688-0.19531 0.60547-0.28516 0.91406-0.082031 0.28125-0.17969 0.55469-0.23828 0.83984-0.058594 0.30469-0.070312 0.60938-0.10547 0.91797-0.027343 0.29687-0.070312 0.59375-0.070312 0.89062 0 0.29688 0.042969 0.59375 0.070312 0.89063 0.027344 0.30859 0.042969 0.61719 0.10547 0.91797 0.058594 0.28516 0.15234 0.55859 0.23828 0.83984 0.089844 0.30859 0.16406 0.61719 0.28516 0.91406 0.11328 0.27344 0.26562 0.53125 0.40625 0.79688 0.14844 0.28516 0.28125 0.57422 0.46094 0.84375 0.17188 0.26172 0.39453 0.49609 0.59375 0.75 0.17578 0.21484 0.31641 0.44531 0.51172 0.64844l197.86 203.64c1.8633 1.9023 4.3281 2.8633 6.8008 2.8633 2.3789 0 4.7578-0.89062 6.6016-2.6758 3.75-3.6484 3.8398-9.6406 0.19531-13.395z"/>
</svg>
